<?xml version="1.0" encoding="UTF-8"?>
<!DOCTYPE svg  PUBLIC '-//W3C//DTD SVG 1.1//EN'  'http://www.w3.org/Graphics/SVG/1.1/DTD/svg11.dtd'>
<svg width="200" height="57.25" version="1.1" viewBox="65.2695035460993 246.3758865248227 511.46099290780154 149.24822695035465" xmlns="http://www.w3.org/2000/svg" xmlns:xlink="http://www.w3.org/1999/xlink">
<defs>
<path id="g" d="m191.09 268.91c-13.16-13.61-31.32-21.33-52.2-21.33-39.94 0-72.62 32.68-72.62 72.62 0 18.61 7.26 36.77 19.97 50.39 5.9-5.45 12.26-10.44 19.06-14.98 0.91-0.46 1.82-1.36 2.73-1.82 0.45-0.45 0.91-0.45 1.36-0.9 0.45-0.46 0.91-0.46 1.36-0.91-5.45-4.54-9.53-10.9-11.35-18.16-0.06-0.18-0.36-1.09-0.9-2.72h111.2c0.46-3.18 0.91-6.81 0.91-10.9 0-19.97-6.81-38.12-19.52-51.29zm-92.59 39.95c0.27-1.64 0.42-2.55 0.45-2.73 3.63-15.88 21.79-29.5 39.94-29.5h0.46c18.15 0 34.04 11.8 39.49 29.05 0.06 0.18 0.36 1.09 0.9 2.72h-81.24v0.46z"/>
<path id="f" d="m147.52 392.62c-2.27-1.36-4.54-2.27-7.26-3.17-8.17-3.18-16.8-5.45-25.88-5.9-4.54-0.46-8.62-0.46-13.16-0.46-1.36-0.91-2.72-1.81-4.09-2.27 5.45-1.36 11.35-2.27 16.8-2.72 9.53-0.91 19.06 0 28.59 1.81 8.63 1.37 16.35 4.09 23.61 7.72-5.9 2.27-12.26 4.09-18.61 4.99z"/>
<path id="c" d="m176.11 382.18c-0.45-0.45-0.9-0.45-1.36-0.45-9.08-4.08-18.61-7.26-28.59-8.62-4.54-0.91-9.99-0.91-14.98-0.91-5 0-9.99 0.45-15.44 1.36-7.26 0.91-14.07 2.72-20.87 5.45-0.91-0.46-1.37-1.36-2.27-1.82 6.8-3.63 14.07-6.81 21.78-9.08 5-1.36 10.44-2.72 15.89-3.63s10.89-1.36 16.34-0.91c10.89 0 22.24 1.82 32.68 5 2.72 0.91 5.45 1.81 8.17 2.72 0.91 0 1.36 0.45 1.82 0.45-4.09 4.09-8.17 7.27-13.17 10.44z"/>
<path id="h" d="m196.09 364.03c-2.27-0.91-4.09-1.36-6.36-2.27-0.41-0.14-3.68-1.23-4.08-1.36-1.37-0.46-2.73-0.46-4.09-0.91-5.45-1.36-10.89-2.27-16.34-2.72-1.36 0-2.72 0-4.09-0.46h-4.08-6.35-2.27c-2.46 0.27-3.82 0.43-4.09 0.46-1.36 0-2.72 0.45-4.08 0.45-0.23 0.05-2.05 0.41-2.27 0.45-0.91 0-1.37 0-2.27 0.46-0.37 0.04-3.27 0.41-3.63 0.45-0.91 0-1.37 0.46-2.27 0.46-0.16 0.03-0.91 0.18-2.27 0.45-2.45 0.54-3.82 0.85-4.09 0.91-1.36 0.45-2.72 0.9-4.08 1.36-1.37 0.45-2.73 0.91-4.09 1.36-8.62 3.18-16.79 7.26-24.51 12.26-0.45-0.46-1.36-0.91-1.82-1.37 7.27-6.35 15.44-11.34 24.06-15.88 1.36-0.91 2.72-1.36 4.09-1.82 1.36-0.45 2.72-1.36 4.08-1.81 0.27-0.12 1.64-0.73 4.09-1.82 1.36-0.54 2.11-0.85 2.27-0.91 0.9-0.45 1.36-0.45 2.27-0.9 0.45-0.14 4.08-1.23 4.53-1.37 0.91-0.45 1.37-0.45 2.27-0.45 0.23-0.05 2.05-0.41 2.27-0.45 1.37-0.46 2.73-0.91 4.54-0.91 0.31-0.06 1.82-0.37 4.54-0.91l2.27-0.45 2.27-0.46c2.72-0.27 4.24-0.42 4.54-0.45 1.36 0 3.18-0.46 4.54-0.46s3.18-0.45 4.54-0.45c6.35 0 12.25 0 18.61 0.91 1.36 0 3.17 0.45 4.54 0.45 0.45 0.09 4.08 0.82 4.54 0.91 3.17 0.45 6.35 1.36 9.07 1.82 0.46 0 0.91 0 1.82 0.45-2.27 5.45-4.99 10.44-8.62 14.98z"/>
<path id="i" d="m551.49 268.26v21.33 55.83 21.79h22.24v-21.79-55.83-21.33-20.88h-22.24v20.88z"/>
<path id="e" d="m282.33 299.57s-2.27-0.45-5.45-0.45c-9.53 0-20.43 5.45-24.51 18.61-1.36 4.54-1.82 9.08-1.82 14.53v35.4h-22.24v-88.96h22.24v14.07c4.54-11.35 14.53-15.44 27.69-15.44 1.82 0 4.09 0.46 4.09 0.46v21.78z"/>
<path id="d" d="m376.74 344.96v22.7h-21.34v-14.98h-0.45c-4.08 9.08-15.43 16.8-30.86 16.8-19.07 0-30.87-9.54-30.87-34.05v-34.49-22.7h21.79v53.11c0 10.89 2.72 18.15 13.61 18.15 15.89 0 24.97-14.07 24.97-29.95v-40.85h23.15v66.26z"/>
<path id="a" d="m448.45 299.57s-2.27-0.45-5.44-0.45c-9.53 0-20.43 5.45-24.51 18.61-1.37 4.54-1.82 9.08-1.82 14.53v35.4h-21.79v-88.96h22.24v14.07c4.54-11.35 14.53-15.44 27.69-15.44 1.36 0 3.63 0.46 3.63 0.46v21.78z"/>
<path id="b" d="m462.07 304.11h20.88c0-7.26 6.35-10.89 11.8-10.89 10.44 0 16.34 4.54 16.34 17.7v0.91h-2.72c-14.53 0-53.11 2.27-53.11 30.41 0 17.7 14.53 27.69 30.41 27.69 19.98 0 26.78-15.89 26.78-15.89h0.46v13.62h20.42v-22.7-33.13c0-19.97-8.17-35.4-38.58-35.4-20.88 0-32.68 11.34-32.68 27.68zm49.48 24.97c0 10.89-8.63 23.6-20.43 23.6-9.08 0-13.62-5.45-13.62-11.35 0-12.25 18.16-14.07 29.96-14.07h3.63v1.82h0.46z"/>
</defs>
<use fill="#e97e13" xlink:href="#g"/>
<use fill-opacity="0" stroke="#000000" stroke-opacity="0" xlink:href="#g"/>
<use fill="#237814" xlink:href="#f"/>
<use fill-opacity="0" stroke="#000000" stroke-opacity="0" xlink:href="#f"/>
<use fill="#237814" xlink:href="#c"/>
<use fill-opacity="0" stroke="#000000" stroke-opacity="0" xlink:href="#c"/>
<use fill="#237814" xlink:href="#h"/>
<use fill-opacity="0" stroke="#000000" stroke-opacity="0" xlink:href="#h"/>
<use fill="#237814" xlink:href="#i"/>
<use fill-opacity="0" stroke="#000000" stroke-opacity="0" xlink:href="#i"/>
<use fill="#237814" xlink:href="#e"/>
<use fill-opacity="0" stroke="#000000" stroke-opacity="0" xlink:href="#e"/>
<use fill="#237814" xlink:href="#d"/>
<use fill-opacity="0" stroke="#000000" stroke-opacity="0" xlink:href="#d"/>
<use fill="#237814" xlink:href="#a"/>
<use fill-opacity="0" stroke="#000000" stroke-opacity="0" xlink:href="#a"/>
<use fill="#237814" xlink:href="#b"/>
<use fill-opacity="0" stroke="#000000" stroke-opacity="0" xlink:href="#b"/>
</svg>
